# OBJ File Exported By Crafty (c) 2006 Ryan Gregg
# http://nemesis.thewavelength.net/

mtllib blood.mtl

v 96.000000 -45.443874 0.994784
v 96.000000 -45.443874 -0.005216
v -3.290797 96.000000 0.994789
v -80.548462 68.949371 0.994792
v -89.520515 -30.837055 0.994792
v 29.849915 96.000000 0.994787
v 96.000000 -45.443874 0.994784
v 26.353310 -96.000000 0.994787
v -40.181854 -96.000000 0.994790
v -80.548462 68.949371 -0.005208
v -3.290797 96.000000 -0.005211
v -89.520515 -30.837055 -0.005208
v 96.000000 63.283066 -0.005216
v 29.849915 96.000000 -0.005213
v -40.181854 -96.000000 -0.005210
v 85.062637 3.720702 -0.005215
v 96.000000 -45.443874 -0.005216
v -57.123066 -63.864906 -0.005209
v 26.353310 -96.000000 -0.005213
v 96.000000 63.283066 0.994784
v -57.123066 -63.864906 0.994791
v 85.062637 3.720702 0.994785
v 26.353310 -96.000000 0.994787
v -40.181854 -96.000000 -0.005210
v 26.353310 -96.000000 -0.005213
v -40.181854 -96.000000 0.994790
v -40.181854 -96.000000 -0.005210
v -40.181854 -96.000000 0.994790
v 29.849915 96.000000 0.994787
v 96.000000 63.283066 0.994784
v 29.849915 96.000000 -0.005213
v 96.000000 63.283066 -0.005216
v -80.548462 68.949371 -0.005208
v -80.548462 68.949371 0.994792
v -80.548462 68.949371 0.994792
v -57.123066 -63.864906 -0.005209
v -57.123066 -63.864906 0.994791
v -89.520515 -30.837055 -0.005208
v -89.520515 -30.837055 0.994792
v -80.548462 68.949371 -0.005208
v -3.290797 96.000000 0.994789
v -3.290797 96.000000 -0.005211
v 96.000000 -45.443874 -0.005216
v 96.000000 -45.443874 0.994784
v 96.000000 63.283066 0.994784
v 96.000000 63.283066 -0.005216
v 85.062637 3.720702 0.994785
v 85.062637 3.720702 -0.005215
vn 0.587442 -0.809267 0.000000
vn 0.587442 -0.809267 0.000000
vn 0.000000 0.000000 1.000000
vn 0.000000 0.000000 1.000000
vn 0.000000 0.000000 1.000000
vn 0.000000 0.000000 1.000000
vn 0.000000 0.000000 1.000000
vn 0.000000 0.000000 1.000000
vn 0.000000 0.000000 1.000000
vn 0.000000 0.000000 -1.000000
vn 0.000000 0.000000 -1.000000
vn 0.000000 0.000000 -1.000000
vn 0.000000 0.000000 -1.000000
vn 0.000000 0.000000 -1.000000
vn 0.000000 0.000000 -1.000000
vn 0.000000 0.000000 -1.000000
vn 0.000000 0.000000 -1.000000
vn 0.000000 0.000000 -1.000000
vn 0.000000 0.000000 -1.000000
vn 0.000000 0.000000 1.000000
vn 0.000000 0.000000 1.000000
vn 0.000000 0.000000 1.000000
vn 0.308815 -0.951122 0.000000
vn 0.000000 -1.000000 0.000000
vn 0.308815 -0.951122 0.000000
vn 0.000000 -1.000000 0.000000
vn -0.884600 -0.466350 0.000000
vn -0.884600 -0.466350 0.000000
vn 0.227640 0.973745 0.000000
vn 0.443327 0.896360 0.000000
vn 0.227640 0.973745 0.000000
vn 0.443327 0.896360 0.000000
vn -0.995982 0.089551 0.000000
vn -0.995982 0.089551 0.000000
vn -0.330464 0.943819 0.000000
vn -0.807756 -0.589518 0.000000
vn -0.807756 -0.589518 0.000000
vn -0.941735 -0.336357 0.000000
vn -0.941735 -0.336357 0.000000
vn -0.330464 0.943819 0.000000
vn -0.167603 0.985855 0.000000
vn -0.167603 0.985855 0.000000
vn 0.976137 0.217156 0.000000
vn 0.976137 0.217156 0.000000
vn 0.983555 -0.180609 0.000000
vn 0.983555 -0.180609 0.000000
vn 0.999826 0.018646 0.000000
vn 0.999826 0.018646 0.000000
vt 0.025556 -0.033357
vt 0.025556 -0.033439
vt 0.984455 -0.483183
vt 0.847581 -0.088370
vt 0.342672 -0.042520
vt 0.984455 -0.652543
vt 0.268763 -0.990592
vt 0.012954 -0.634674
vt 0.012954 -0.294657
vt 0.024901 -0.035704
vt 0.025645 -0.033578
vt 0.022154 -0.035951
vt 0.024745 -0.030845
vt 0.025645 -0.032665
vt 0.020360 -0.034593
vt 0.023105 -0.031146
vt 0.021752 -0.030845
vt 0.021245 -0.035060
vt 0.020360 -0.032762
vt 0.818910 -0.990592
vt 0.175554 -0.208082
vt 0.517531 -0.934699
vt 0.023639 -0.033357
vt 0.021807 -0.033439
vt 0.023639 -0.033439
vt 0.021807 -0.033357
vt 0.025645 -0.033439
vt 0.025645 -0.033357
vt 0.022270 -0.033357
vt 0.020449 -0.033357
vt 0.022270 -0.033439
vt 0.020449 -0.033439
vt 0.021105 -0.033439
vt 0.021105 -0.033357
vt 0.025309 -0.033357
vt 0.024761 -0.033439
vt 0.024761 -0.033357
vt 0.023851 -0.033439
vt 0.023851 -0.033357
vt 0.025309 -0.033439
vt 0.023182 -0.033357
vt 0.023182 -0.033439
vt 0.021752 -0.033439
vt 0.021752 -0.033357
vt 0.024745 -0.033357
vt 0.024745 -0.033439
vt 0.023105 -0.033357
vt 0.023105 -0.033439
g Body.urban_puddle_model03a.smd.mesh_0
f 21/21/21 9/9/9 8/8/8
f 7/7/7 22/22/22 8/8/8
f 22/22/22 21/21/21 8/8/8
f 21/21/21 22/22/22 20/20/20
f 21/21/21 20/20/20 6/6/6
f 5/5/5 21/21/21 6/6/6
f 4/4/4 5/5/5 6/6/6
f 3/3/3 4/4/4 6/6/6
f 15/15/15 18/18/18 19/19/19
f 16/16/16 17/17/17 19/19/19
f 18/18/18 16/16/16 19/19/19
f 16/16/16 18/18/18 13/13/13
f 13/13/13 18/18/18 12/12/12
f 14/14/14 13/13/13 12/12/12
f 11/11/11 14/14/14 12/12/12
f 10/10/10 11/11/11 12/12/12
f 30/30/30 32/32/32 31/31/31
f 29/29/29 30/30/30 31/31/31
f 31/31/31 42/42/42 29/29/29
f 42/42/42 41/41/41 29/29/29
f 41/41/41 42/42/42 40/40/40
f 35/35/35 41/41/41 40/40/40
f 27/27/27 28/28/28 37/37/37
f 36/36/36 27/27/27 37/37/37
f 37/37/37 39/39/39 36/36/36
f 39/39/39 38/38/38 36/36/36
f 38/38/38 39/39/39 34/34/34
f 33/33/33 38/38/38 34/34/34
f 2/2/2 1/1/1 23/23/23
f 25/25/25 2/2/2 23/23/23
f 23/23/23 26/26/26 25/25/25
f 26/26/26 24/24/24 25/25/25
f 44/44/44 43/43/43 48/48/48
f 47/47/47 44/44/44 48/48/48
f 47/47/47 48/48/48 46/46/46
f 45/45/45 47/47/47 46/46/46
